<svg id="Groupe_1" data-name="Groupe 1" xmlns="http://www.w3.org/2000/svg" width="957" height="348" viewBox="0 0 957 348">
  <defs>
    <style>
      .cls-1 {
        fill: #2d0b1b;
      }

      .cls-1, .cls-2, .cls-3, .cls-4 {
        fill-rule: evenodd;
      }

      .cls-2 {
        fill: #830326;
      }

      .cls-3 {
        fill: #d7031a;
      }

      .cls-4 {
        fill: #fd0b09;
      }
    </style>
  </defs>
  <path id="foundation_copie" data-name="foundation copie" class="cls-1" d="M576.467,304.708v-8.545H566.5V283.1q0-4.882.854-6.592a3.314,3.314,0,0,1,3.3-1.75,11.511,11.511,0,0,1,4.883,1.506l0.936,0.488V267.4a16.444,16.444,0,0,0-6.144-1.424q-6.837,0-10.417,4.313-2.6,3.093-2.6,10.58v15.3h-3.255v8.545H557.3V335.8h9.2V304.708h9.969Zm10.457,26.123a20.141,20.141,0,0,0,14.933,6.1,21,21,0,0,0,15.178-5.982,21.22,21.22,0,0,0,.041-29.825,21.677,21.677,0,0,0-30.03-.041A19.694,19.694,0,0,0,580.9,315.7a20.523,20.523,0,0,0,6.022,15.136h0Zm6.592-24.007a12.183,12.183,0,0,1,17.09,0,14.879,14.879,0,0,1,0,18.473,12.333,12.333,0,0,1-17.171-.04q-3.174-3.459-3.174-9.4A12.734,12.734,0,0,1,593.516,306.824Zm39.347-10.661v22.95a23.883,23.883,0,0,0,1.14,8.219,14.023,14.023,0,0,0,4.028,5.575,19.239,19.239,0,0,0,23.56,0,13.807,13.807,0,0,0,3.946-5.575,24.183,24.183,0,0,0,1.18-8.219v-22.95h-9.155v22.746q0,9.847-7.772,9.847t-7.771-9.847V296.163h-9.156Zm45.41,39.633h9.2V316.647q0-7.414,1.872-10.389,1.913-3.013,6.47-3.015,4.191,0,5.778,2.282,1.627,2.241,1.627,8.107V335.8h9.2V311.5q0-8.382-3.336-12.085-3.867-4.354-10.783-4.354a15.01,15.01,0,0,0-10.824,4.76v-3.662h-9.2V335.8Zm74.911-35.035q-5.493-5.7-12.451-5.7a17.01,17.01,0,0,0-13.306,5.981,21.355,21.355,0,0,0-5.33,14.811,22.091,22.091,0,0,0,5.33,15.137,17.436,17.436,0,0,0,13.509,5.941,17.079,17.079,0,0,0,12.248-5.29V335.8h9.2V267.07h-9.2v33.691Zm-18.595,6.145a10.118,10.118,0,0,1,7.893-3.581,10.359,10.359,0,0,1,8.138,3.54,15.059,15.059,0,0,1,0,18.392,10.505,10.505,0,0,1-8.219,3.5,10,10,0,0,1-7.894-3.621,13.806,13.806,0,0,1-3.052-9.278,13.193,13.193,0,0,1,3.134-8.951h0Zm68.562-6.145q-5.493-5.7-12.41-5.7a17.18,17.18,0,0,0-13.346,5.941,21.409,21.409,0,0,0-5.331,14.851,22.091,22.091,0,0,0,5.331,15.137,17.524,17.524,0,0,0,13.59,5.941q6.51,0,12.166-5.29V335.8h9.2V296.163h-9.2v4.6Zm-18.595,6.145a10.122,10.122,0,0,1,7.894-3.581,10.36,10.36,0,0,1,8.138,3.54,15.063,15.063,0,0,1,0,18.392,10.507,10.507,0,0,1-8.219,3.5,9.995,9.995,0,0,1-7.894-3.621,13.8,13.8,0,0,1-3.052-9.278,13.2,13.2,0,0,1,3.133-8.951h0Zm55.908-2.2v-8.545h-7.121V281.637h-9.155v14.526h-3.906v8.545h3.906V335.8h9.155V304.708h7.121Zm6.226-8.545V335.8h9.155V296.163H846.69Zm0.366-12.207a5.762,5.762,0,0,0,4.232,1.75,5.63,5.63,0,0,0,4.191-1.75,5.764,5.764,0,0,0,1.75-4.231,5.636,5.636,0,0,0-1.75-4.192,5.945,5.945,0,0,0-8.423,0,5.672,5.672,0,0,0-1.75,4.151A5.809,5.809,0,0,0,847.056,283.956Zm24.536,46.875a20.139,20.139,0,0,0,14.933,6.1,21,21,0,0,0,15.178-5.982,21.219,21.219,0,0,0,.04-29.825,21.675,21.675,0,0,0-30.029-.041A19.694,19.694,0,0,0,865.57,315.7a20.523,20.523,0,0,0,6.022,15.136h0Zm6.592-24.007a12.183,12.183,0,0,1,17.09,0,14.879,14.879,0,0,1,0,18.473,12.333,12.333,0,0,1-17.171-.04q-3.174-3.459-3.174-9.4A12.734,12.734,0,0,1,878.184,306.824ZM917.531,335.8h9.2V316.647q0-7.414,1.872-10.389,1.913-3.013,6.47-3.015,4.189,0,5.778,2.282,1.626,2.241,1.627,8.107V335.8h9.2V311.5q0-8.382-3.336-12.085-3.867-4.354-10.783-4.354a15.01,15.01,0,0,0-10.824,4.76v-3.662h-9.2V335.8Z"/>
  <path id="vietsch_copie" data-name="vietsch copie" class="cls-1" d="M333.436,115.715l51.066,105.9,51.473-105.9H410.238l-25.533,55.644-25.634-55.644H333.436Zm118,0V214.8h22.888V115.715H451.437ZM452.353,85.2a14.407,14.407,0,0,0,10.579,4.374A14.08,14.08,0,0,0,473.41,85.2a14.414,14.414,0,0,0,4.374-10.579A14.085,14.085,0,0,0,473.41,64.14a14.858,14.858,0,0,0-21.057,0,14.177,14.177,0,0,0-4.375,10.376A14.525,14.525,0,0,0,452.353,85.2Zm141.3,80.057q0-24.513-12.614-38.35-12.717-13.935-34.586-13.936-21.667,0-34.791,14.343-13.022,14.549-13.02,38.045,0,23.7,13.427,38.045,13.428,14.244,35.6,14.242a59.982,59.982,0,0,0,14.343-1.628,42.838,42.838,0,0,0,12.309-5.137A50.305,50.305,0,0,0,585,201.927a76.959,76.959,0,0,0,9.461-13.071l-19.328-10.783q-7.018,10.986-12.512,15.055-5.6,4.07-14.14,4.069-10.986,0-18-7.121-7.02-7.221-7.935-19.429h71Zm-69.58-13.326a26.688,26.688,0,0,1,3.255-7.629,23.228,23.228,0,0,1,5.137-5.748,22.475,22.475,0,0,1,6.663-3.662,23.734,23.734,0,0,1,7.833-1.271q18.31,0,23.092,18.31h-45.98Zm137.736-14.852V115.715H644V79.4H621.115v36.316h-9.766v21.362h9.766V214.8H644V137.077h17.8Zm44.861-24.108q-13.124,0-21.973,8.392t-8.85,21.413q0,9.765,5.188,15.971,4.068,4.882,14.038,9.766,7.019,3.357,13.936,6.713,8.951,5.394,8.952,11.394,0,10.581-11.6,10.579a13.921,13.921,0,0,1-9.969-3.865q-2.544-2.442-6.206-9.054l-19.531,9.054q10.376,24.314,35.3,24.312,14.648,0,24.821-9.155a31,31,0,0,0,10.579-24.008q0-11.189-6.307-17.8t-24.516-14.444q-13.224-5.7-13.224-11.292a6.974,6.974,0,0,1,2.238-5.341,7.63,7.63,0,0,1,5.391-2.085q6.714,0,11.088,9.155l18.921-10.07q-9.257-19.632-28.279-19.633h0Zm104.675,0q-22.788,0-38.452,15.258t-15.666,37.435q0,22.177,15.462,37.13,15.462,14.853,38.453,14.852a60.11,60.11,0,0,0,27.872-7.223V180.209q-8.239,9.97-14.343,13.428a29.079,29.079,0,0,1-14.547,3.56q-12.92,0-21.26-8.952-8.24-8.951-8.24-22.888,0-13.63,8.545-22.685a28.275,28.275,0,0,1,21.464-9.053,27.34,27.34,0,0,1,14.343,3.662q6.2,3.563,14.038,13.122V119.988a57.45,57.45,0,0,0-27.669-7.019h0ZM866.578,214.8h22.888V166.883q0-18.311,4.781-25.838,4.883-7.425,16.886-7.426,9.358,0,13.581,5.34t4.221,17.243V214.8h22.889v-60.73q0-20.753-8.545-30.213-10.071-10.884-26.856-10.884-14.751,0-26.957,10.986V42.982H866.578V214.8Z"/>
  <path id="Polygone_1" data-name="Polygone 1" class="cls-2" d="M287.594,335l-93.326-53.908,93.22-54.1Z"/>
  <path class="cls-3" d="M108.114,232.862L287.609,127.491l-1.042,65.244-121.537,71.4Z"/>
  <path class="cls-4" d="M4.52,173.406L286.267,13.07l1.618,81.8L81.638,214.708Z"/>
</svg>
